<svg version="1.2" xmlns="http://www.w3.org/2000/svg" viewBox="0 0 59 59" width="400" height="400">
	<title>Kategoriler-svg</title>
	<defs>
		<linearGradient id="g1" x2="1" gradientUnits="userSpaceOnUse" gradientTransform="matrix(0,51.328,-51.328,0,29.5,-6.436)">
			<stop offset="0" stop-color="#35d72a"/>
			<stop offset="1" stop-color="#50ac4a"/>
		</linearGradient>
	</defs>
	<style>
		.s0 { fill: url(#g1);stroke: #b5e0a9;stroke-width: 2 } 
		.s1 { fill: #ffffff } 
	</style>
	<path id="Layer" class="s0" d="m29.5 58c-15.8 0-28.5-12.7-28.5-28.5 0-15.8 12.7-28.5 28.5-28.5 15.8 0 28.5 12.7 28.5 28.5 0 15.8-12.7 28.5-28.5 28.5z"/>
	<path id="Layer" class="s1" d="m33.6 24.8h-5.3v9.7h3v-7.4h0.9c0.9 0 1.5 0.6 1.5 1.3 0 0.7-0.6 1.3-1.5 1.3-0.2 0-0.4-0.1-0.5-0.1l0.6 2v0.1c2.5 0 4.3-1.8 4.3-3.6 0-1.5-0.9-3.3-3-3.3z"/>
	<path id="Layer" fill-rule="evenodd" class="s1" d="m43.3 38.6c-0.2 0.3-0.5 0.4-0.9 0.4h-20.8c-0.1 0-0.2 0-0.3 0h-1.9c-1 0-1.7-0.8-1.7-1.7 0-0.9 0.7-1.6 1.7-1.6h1.2l0.2-1.8h-4.3c-0.9 0-1.7-0.8-1.7-1.6 0-0.9 0.8-1.7 1.7-1.7h4.7l0.2-1.8h-1.9c-1 0-1.7-0.7-1.7-1.6 0-0.9 0.7-1.6 1.7-1.6h2.3l0.3-1.9h-3.1c-1 0-1.7-0.7-1.7-1.6 0-0.9 0.7-1.7 1.7-1.7h4.3q0.1 0 0.3 0h3.5c0.7-2 2.6-3.4 4.8-3.4 2.2 0 4.1 1.4 4.8 3.4h3.7c0.6 0 1.2 0.5 1.2 1.1l1.8 14.4q0 0.1 0 0.2l0.2 1.6c0.1 0.3 0 0.6-0.3 0.9zm-13.4-18.2h4.1c-0.5-0.6-1.3-1-2.1-1-0.8 0-1.5 0.4-2 1zm-6.9 16.2h18l-1.7-13.8h-14.6z"/>
	<path id="Layer" class="s1" d="m15.6 28.8c0.9 0 1.7-0.7 1.7-1.6 0-0.9-0.8-1.7-1.7-1.7-1 0-1.7 0.8-1.7 1.7 0 0.9 0.7 1.6 1.7 1.6z"/>
	<path id="Layer" class="s1" d="m12.7 30.6c-0.9 0-1.7 0.8-1.7 1.7 0 0.9 0.8 1.7 1.7 1.7 0.9 0 1.7-0.8 1.7-1.7 0-0.9-0.8-1.7-1.7-1.7z"/>
	<path id="Layer" class="s1" d="m15.6 35.8c-0.9 0-1.7 0.7-1.7 1.6 0 0.9 0.8 1.7 1.7 1.7 0.9 0 1.7-0.8 1.7-1.7 0-0.9-0.8-1.6-1.7-1.6z"/>
</svg>